<svg xmlns="http://www.w3.org/2000/svg" viewBox="0 0 64 64" role="img" aria-label="Robinson">
  <rect width="64" height="64" rx="14" fill="#052424"/>
  <g transform="translate(8 16.8) scale(0.6035)" fill="#ffffff">
    <path fill-rule="evenodd" clip-rule="evenodd" d="M41.176,25.996c0.294,0.602,1.081,0.941,1.655,1.304c8.983,5.664,18.167,11.317,27.23,16.95c0.822,0.472,1.615,1.007,2.457,1.505c2.024,1.195,3.991,2.458,6.068,3.711c0.34,0.205,0.888,0.43,0.953,0.902c-10.717,0.056-21.534,0.002-32.497,0c-0.738,0-1.578,0.022-2.356,0c-0.749-0.021-1.6,0.101-2.157-0.05c-0.452-0.123-0.906-0.882-1.253-1.304c-2.661-3.242-5.353-6.303-8.626-8.927c-1.885-1.457-3.709-2.884-5.918-4.162c-1.947-1.128-5.141-2.798-8.224-2.106c-1.364,0.306-2.54,1.111-3.009,2.407c-0.683,1.883-0.615,4.744-0.401,7.221c0.214,2.488,0.86,4.808,1.102,6.62c-0.726,0.305-1.721,0.11-2.657,0.101c-0.974-0.01-1.952,0.079-2.759-0.101c-1.051-4.104-1.867-8.286-2.808-12.437C6.097,29.338,4.344,20.978,2.56,12.606C1.895,9.478,1.26,6.362,0.555,3.178C0.33,2.163-0.041,1.13,0.004,0.069c0.132-0.052,0.308-0.06,0.502-0.05c7.811-0.087,16.066,0.15,24.07,0.15c3.921,0,7.942-0.031,11.836,0.15c3.859,0.18,7.626,0.624,10.933,1.153c3.5,0.561,6.89,1.155,10.029,2.056c1.499,0.43,2.93,1.122,4.312,1.755c1.405,0.643,2.714,1.333,3.861,2.156c2.184,1.565,4.488,3.827,5.366,6.72c1.136,3.738-0.808,6.918-2.908,8.575c-4.222,3.494-11.982,4.566-19.709,4.163C45.821,26.769,43.438,26.269,41.176,25.996z M43.733,18.223c-0.192-3.599-2.716-5.973-5.115-7.573c-0.866-0.578-1.742-1.205-2.657-1.655c-1.879-0.923-4.001-1.643-6.219-2.357c-5.324-1.712-10.746-2.319-16.95-2.608c-0.849-0.04-1.734-0.081-2.407,0C9.127,4.183,7.621,3.925,6.623,4.332c0.11,0.402,0.543,0.639,0.853,0.853c2.4,1.653,4.988,3.02,7.321,4.664c4.124,2.747,8.341,5.386,12.587,7.974c4.253,2.592,8.408,5.347,12.788,7.773C42.487,24.447,43.921,21.733,43.733,18.223z"/>
  </g>
</svg>
