<svg xmlns="http://www.w3.org/2000/svg" xmlns:xlink="http://www.w3.org/1999/xlink" width="160" zoomAndPan="magnify" viewBox="0 0 120 60" height="80" preserveAspectRatio="xMidYMid meet" version="1.0"><defs><clipPath id="0315673e18"><path d="M 9.898438 0.898438 L 105.898438 0.898438 L 105.898438 60 L 9.898438 60 Z M 9.898438 0.898438 " clip-rule="nonzero"/></clipPath><clipPath id="8378b83870"><path d="M 10 1 L 105.898438 1 L 105.898438 60 L 10 60 Z M 10 1 " clip-rule="nonzero"/></clipPath></defs><g clip-path="url(#0315673e18)"><path fill="#ffffff" d="M 6.210938 -21.242188 L 109.710938 -21.242188 L 109.710938 82.257812 L 6.210938 82.257812 Z M 6.210938 -21.242188 " fill-opacity="1" fill-rule="evenodd"/></g><g clip-path="url(#8378b83870)"><path fill="#e6e6e7" d="M 57.949219 1.582031 C 83.945312 1.582031 105.144531 14.574219 105.144531 30.511719 C 105.144531 46.4375 83.945312 59.429688 57.949219 59.429688 C 31.972656 59.429688 10.773438 46.4375 10.773438 30.511719 C 10.773438 14.574219 31.972656 1.582031 57.949219 1.582031 Z M 57.949219 1.582031 " fill-opacity="1" fill-rule="evenodd"/></g><path fill="#000000" d="M 63.992188 22.496094 C 60.277344 13.886719 74.121094 14.054688 74.121094 14.054688 C 95.210938 16.253906 94.035156 31.105469 94.035156 31.105469 C 93.332031 45.539062 75.34375 52.824219 64.269531 55.953125 C 62.203125 56.121094 60.101562 56.21875 57.949219 56.21875 C 33.742188 56.21875 13.984375 44.667969 13.984375 30.511719 C 13.984375 17.480469 30.710938 6.667969 52.234375 5.019531 C 48.90625 6.113281 46.574219 8.070312 46.574219 11.308594 C 46.574219 16.402344 54.285156 17.519531 54.285156 17.519531 C 56.636719 23.390625 63.992188 22.496094 63.992188 22.496094 Z M 63.992188 22.496094 " fill-opacity="1" fill-rule="evenodd"/><path fill="#929496" d="M 69.136719 5.640625 C 87.972656 8.542969 101.933594 18.605469 101.933594 30.511719 C 101.933594 43.414062 85.515625 54.148438 64.269531 55.953125 C 75.34375 52.824219 93.335938 45.539062 94.035156 31.105469 C 94.035156 31.105469 95.210938 16.253906 74.121094 14.054688 C 74.121094 14.054688 60.277344 13.886719 63.992188 22.496094 C 63.992188 22.496094 55.234375 21.824219 55.234375 14.902344 C 55.234375 10.371094 59.695312 6.636719 69.136719 5.640625 Z M 69.136719 5.640625 " fill-opacity="1" fill-rule="evenodd"/><path fill="#929496" d="M 67.003906 5.34375 C 62.027344 5.710938 53.59375 7.585938 53.824219 16.078125 C 53.824219 16.078125 48.273438 15.691406 48.273438 10.914062 C 48.273438 8.21875 50.890625 5.847656 55.726562 4.832031 C 59.488281 4.722656 63.261719 4.878906 67.003906 5.34375 Z M 67.003906 5.34375 " fill-opacity="1" fill-rule="evenodd"/><path fill="#ffffff" d="M 86.628906 39.109375 C 86.535156 38.914062 86.40625 38.742188 86.246094 38.597656 C 86.082031 38.453125 85.898438 38.34375 85.695312 38.273438 C 85.488281 38.199219 85.277344 38.167969 85.058594 38.179688 C 84.84375 38.191406 84.636719 38.246094 84.4375 38.339844 C 83.621094 38.726562 83.273438 39.710938 83.667969 40.53125 C 84.054688 41.351562 85.03125 41.695312 85.859375 41.300781 C 86.058594 41.207031 86.226562 41.078125 86.375 40.917969 C 86.519531 40.753906 86.628906 40.570312 86.699219 40.367188 C 86.773438 40.160156 86.800781 39.949219 86.789062 39.730469 C 86.777344 39.511719 86.726562 39.304688 86.628906 39.109375 Z M 80.28125 25.753906 L 81.800781 24.695312 L 86.511719 29.554688 L 84.042969 23.480469 L 85.535156 22.453125 L 89.640625 32.710938 C 89.640625 32.710938 91.851562 37.097656 88.152344 38.824219 L 87.292969 37.390625 C 88.277344 36.890625 89.523438 35.140625 88.070312 33.660156 Z M 75.867188 40.078125 L 74.199219 40.769531 L 70.785156 29.769531 L 72.53125 29.148438 L 72.839844 29.976562 C 72.839844 29.976562 73.363281 28.722656 74.617188 28.308594 L 75.386719 30.292969 C 75.386719 30.292969 73.085938 30.953125 74.132812 34.402344 Z M 68.425781 41.816406 L 69.332031 46.03125 L 67.417969 46.476562 L 64.355469 31.28125 L 66.113281 30.933594 L 66.320312 31.578125 C 66.320312 31.578125 66.371094 30.726562 67.773438 30.28125 C 69.175781 29.828125 70.476562 31.773438 71.128906 35.484375 C 71.789062 39.199219 72.027344 41.566406 70.199219 42.132812 C 69.453125 42.359375 69.027344 42.230469 68.425781 41.816406 Z M 57.710938 39.070312 L 59.726562 38.746094 C 59.726562 38.746094 59.992188 42.035156 61.925781 41.578125 C 63.371094 41.253906 62.867188 39.476562 62.757812 39.039062 C 62.648438 38.617188 62.5 37.578125 60.21875 36.34375 C 57.710938 34.984375 57.167969 33.75 56.8125 32.625 C 56.449219 31.488281 55.628906 27.648438 59.035156 26.757812 C 62.648438 25.820312 62.894531 29.621094 63.28125 31.0625 L 61.355469 31.4375 C 61.355469 31.4375 61.097656 28.714844 59.558594 29.050781 C 58.195312 29.335938 58.679688 30.945312 58.816406 31.578125 C 59.035156 32.652344 59.835938 33.3125 61.464844 34.359375 C 63.082031 35.40625 64.277344 36.039062 64.800781 38.46875 C 65.324219 40.898438 64.941406 43.265625 62.539062 43.730469 C 60.070312 44.214844 58.402344 43.128906 57.710938 39.070312 Z M 21.496094 32.289062 C 18.464844 30.203125 21.410156 25.496094 23.207031 22.828125 C 24.925781 20.273438 27.796875 15.703125 31.105469 18 C 34.144531 20.125 31.28125 24.636719 29.542969 27.222656 C 27.765625 29.851562 24.695312 34.488281 21.496094 32.289062 Z M 34.726562 31.824219 L 33.246094 30.90625 C 33.691406 30.046875 34.539062 28.617188 33.730469 28.074219 C 32.507812 27.253906 31.171875 29.671875 30.421875 30.914062 C 29.742188 32.050781 28.785156 34.300781 29.625 34.90625 C 30.402344 35.457031 31.234375 34.550781 32.0625 33.265625 L 33.601562 34.234375 C 31.925781 37.332031 30.039062 37.667969 28.398438 36.613281 C 26.179688 35.191406 27.679688 31.804688 28.824219 29.9375 C 30.226562 27.679688 32.199219 24.695312 34.796875 26.207031 C 36.703125 27.3125 35.726562 30.097656 34.726562 31.824219 Z M 40.53125 36.324219 L 36.75 35.042969 C 36.75 35.042969 35.605469 37.679688 36.820312 38.222656 C 36.820312 38.222656 37.898438 38.667969 38.480469 36.839844 L 40.167969 37.441406 C 40.167969 37.441406 39.082031 41.300781 36.082031 40.117188 C 33.472656 39.089844 34.433594 35.785156 35.339844 33.421875 C 36.25 31.0625 37.492188 27.824219 40.296875 28.84375 C 43.207031 29.988281 41.285156 34.402344 40.53125 36.324219 Z M 78.148438 31.003906 L 76.597656 31.792969 C 76.597656 31.792969 74.625 27.757812 77.636719 26.710938 C 79.234375 26.15625 80.171875 26.730469 81.21875 29.199219 L 83.371094 34.292969 C 83.371094 34.292969 83.945312 35.398438 84.5 36.25 L 82.761719 37.167969 L 82.5625 36.703125 C 82.5625 36.703125 82.160156 37.859375 81.320312 38.164062 C 80.46875 38.460938 78.753906 38.421875 77.765625 35.339844 C 76.777344 32.257812 79.265625 31.125 79.886719 30.828125 L 79.382812 29.457031 C 79.382812 29.457031 79.019531 28.300781 78.277344 28.558594 C 77.644531 28.773438 77.488281 29.296875 78.148438 31.003906 Z M 44.234375 34.667969 L 42.636719 34.253906 C 42.636719 34.253906 43.246094 29.96875 46.339844 30.71875 C 46.339844 30.71875 48.707031 31.113281 47.917969 34.90625 L 46.792969 40.324219 C 46.792969 40.324219 46.554688 41.757812 46.527344 42.765625 L 44.648438 42.339844 L 44.75 41.855469 C 44.75 41.855469 43.761719 42.578125 42.894531 42.339844 C 42.023438 42.113281 40.640625 41.097656 41.582031 38.003906 C 42.519531 34.90625 45.214844 35.378906 45.894531 35.496094 L 46.261719 34.078125 C 46.261719 34.078125 46.644531 32.949219 45.867188 32.703125 C 45.074219 32.457031 44.648438 32.890625 44.234375 34.667969 Z M 50.128906 43.226562 L 48.234375 43.050781 L 49.328125 31.585938 L 51.1875 31.804688 L 51.117188 32.503906 C 51.117188 32.503906 51.667969 31.558594 53.003906 31.726562 C 54.335938 31.902344 54.621094 33.136719 54.511719 34.460938 L 53.773438 43.582031 L 51.917969 43.40625 L 52.6875 35.308594 C 52.6875 35.308594 52.933594 34.074219 51.957031 34.003906 C 50.9375 33.9375 50.871094 34.609375 50.800781 35.339844 C 50.871094 34.609375 50.128906 43.226562 50.128906 43.226562 Z M 50.128906 43.226562 " fill-opacity="1" fill-rule="evenodd"/><path fill="#000000" d="M 86.464844 39.199219 C 86.546875 39.375 86.59375 39.554688 86.601562 39.75 C 86.613281 39.941406 86.585938 40.128906 86.519531 40.3125 C 86.457031 40.492188 86.359375 40.65625 86.226562 40.796875 C 86.097656 40.941406 85.945312 41.050781 85.773438 41.132812 C 85.050781 41.488281 84.183594 41.175781 83.835938 40.453125 C 83.753906 40.28125 83.707031 40.097656 83.695312 39.902344 C 83.683594 39.710938 83.710938 39.523438 83.777344 39.339844 C 83.839844 39.15625 83.933594 38.996094 84.0625 38.851562 C 84.191406 38.707031 84.34375 38.59375 84.519531 38.507812 C 84.691406 38.425781 84.875 38.378906 85.070312 38.367188 C 85.261719 38.359375 85.453125 38.386719 85.632812 38.449219 C 85.816406 38.515625 85.980469 38.613281 86.125 38.742188 C 86.265625 38.871094 86.378906 39.023438 86.464844 39.199219 Z M 69.136719 40.085938 C 68.148438 40.304688 67.566406 38.003906 67.316406 36.75 C 67.050781 35.417969 66.519531 32.910156 67.644531 32.691406 C 68.652344 32.503906 69.136719 34.953125 69.390625 36.257812 C 69.648438 37.5 70.074219 39.882812 69.136719 40.085938 Z M 22.78125 30.203125 C 21.515625 29.21875 23.847656 25.890625 25.082031 24.101562 C 26.238281 22.414062 28.410156 19.078125 29.710938 20.085938 C 30.996094 21.082031 28.8125 24.222656 27.660156 25.921875 C 26.425781 27.71875 24.203125 31.320312 22.78125 30.203125 Z M 39.574219 33.917969 L 37.570312 33.078125 C 37.570312 33.078125 38.242188 30.492188 39.464844 30.9375 C 40.710938 31.332031 39.84375 33.304688 39.574219 33.917969 Z M 80.816406 32.773438 L 81.507812 34.183594 C 81.507812 34.183594 82.03125 35.449219 80.925781 35.953125 C 80.925781 35.953125 80.253906 36.335938 79.738281 35.140625 C 79.234375 33.957031 79.761719 33.019531 80.816406 32.773438 Z M 45.546875 37.628906 L 45.3125 39.179688 C 45.3125 39.179688 45.027344 40.511719 43.832031 40.304688 C 43.832031 40.304688 43.0625 40.234375 43.316406 38.964844 C 43.574219 37.699219 44.542969 37.226562 45.546875 37.628906 Z M 45.546875 37.628906 " fill-opacity="1" fill-rule="evenodd"/><path fill="#ffffff" d="M 84.960938 40.859375 L 85.179688 40.757812 L 84.84375 40.058594 L 85.375 39.800781 C 85.722656 39.644531 85.769531 39.988281 85.890625 40.167969 L 86.027344 40.355469 L 86.273438 40.234375 C 86.117188 40.136719 86.128906 40.085938 86.007812 39.878906 C 85.851562 39.605469 85.832031 39.582031 85.613281 39.554688 C 85.710938 39.359375 85.742188 39.25 85.632812 39.039062 C 85.4375 38.683594 85.171875 38.753906 84.914062 38.875 L 84.183594 39.230469 Z M 84.960938 40.859375 " fill-opacity="1" fill-rule="evenodd"/><path fill="#000000" d="M 85.011719 39.0625 C 85.140625 39.003906 85.359375 38.933594 85.457031 39.230469 C 85.535156 39.457031 85.417969 39.554688 85.277344 39.625 L 84.753906 39.871094 L 84.488281 39.308594 Z M 85.011719 39.0625 " fill-opacity="1" fill-rule="evenodd"/></svg>