<svg width="594" height="161" viewBox="0 0 594 161" fill="none" xmlns="http://www.w3.org/2000/svg">
<g clip-path="url(#clip0_101_73)">
<path fill-rule="evenodd" clip-rule="evenodd" d="M108.194 71.7025C108.967 73.363 111.035 74.298 112.543 75.2992C136.147 90.9217 160.279 106.514 184.093 122.051C186.253 123.353 188.336 124.828 190.549 126.202C195.867 129.498 201.036 132.982 206.493 136.438C207.387 137.003 208.826 137.624 208.997 138.926C180.837 139.08 152.414 138.931 123.608 138.926C121.669 138.926 119.461 138.986 117.417 138.926C115.449 138.868 113.213 139.204 111.749 138.788C110.562 138.448 109.369 136.355 108.457 135.191C101.465 126.249 94.3915 117.806 85.7913 110.568C80.8383 106.55 76.0455 102.614 70.2411 99.0888C65.1251 95.9775 56.7326 91.3713 48.6316 93.28C45.0476 94.124 41.9575 96.3444 40.7252 99.919C38.9305 105.113 39.1092 113.004 39.6715 119.836C40.2338 126.698 41.9312 133.098 42.5671 138.095C40.6595 138.937 38.045 138.399 35.5856 138.374C33.0263 138.346 30.4565 138.592 28.336 138.095C25.5744 126.776 23.4303 115.241 20.9577 103.792C16.0204 80.9205 11.4142 57.8618 6.72654 34.7701C4.97918 26.1424 3.31065 17.5478 1.45819 8.76568C0.866975 5.9661 -0.107868 3.11687 0.0103745 0.190407C0.357219 0.0469799 0.819678 0.0249142 1.32943 0.0524963C21.8537 -0.187468 43.5446 0.466228 64.576 0.466228C74.8788 0.466228 85.4444 0.380723 95.6763 0.879959C105.816 1.37644 115.715 2.60108 124.404 4.06018C133.601 5.60753 142.508 7.24591 150.756 9.73106C154.695 10.9171 158.455 12.8258 162.087 14.5717C165.778 16.3452 169.218 18.2484 172.232 20.5184C177.97 24.835 184.024 31.0741 186.331 39.0536C189.316 49.3638 184.208 58.1349 178.69 62.7052C167.597 72.3424 147.206 75.2992 126.903 74.1877C120.4 73.8346 114.138 72.4555 108.194 71.7025ZM114.913 50.263C114.409 40.3362 107.776 33.7882 101.473 29.375C99.1973 27.7808 96.8956 26.0514 94.4913 24.8102C89.554 22.2644 83.9782 20.2785 78.1502 18.3091C64.1608 13.587 49.9139 11.9128 33.6122 11.1157C31.3814 11.0053 29.056 10.8923 27.2876 11.1157C23.9821 11.5377 20.0249 10.8261 17.4025 11.9487C17.6916 13.0575 18.8293 13.7112 19.6439 14.3014C25.9501 18.8607 32.7504 22.6312 38.8806 27.1657C49.7169 34.7425 60.7975 42.0214 71.9543 49.1597C83.1295 56.309 94.0472 63.9078 105.556 70.5992C111.639 67.4301 115.407 59.9443 114.913 50.263Z" fill="black"/>
</g>
<path d="M207.038 124.35C201.878 124.35 197.168 123.3 192.908 121.2C188.648 119.04 185.258 116.01 182.738 112.11C180.278 108.15 179.048 103.62 179.048 98.52C179.048 96.3 179.318 93.99 179.858 91.59C181.238 85.05 183.848 79.32 187.688 74.4C191.528 69.42 196.328 65.58 202.088 62.88C207.848 60.12 214.148 58.74 220.988 58.74C226.388 58.74 231.188 59.79 235.388 61.89C239.648 63.99 242.978 66.99 245.378 70.89C247.778 74.79 248.978 79.29 248.978 84.39C248.978 86.67 248.708 89.07 248.168 91.59C246.788 98.07 244.148 103.8 240.248 108.78C236.408 113.7 231.608 117.54 225.848 120.3C220.148 123 213.878 124.35 207.038 124.35ZM211.358 104.28C214.958 104.28 218.168 103.14 220.988 100.86C223.808 98.58 225.638 95.49 226.478 91.59C226.778 89.97 226.928 88.62 226.928 87.54C226.928 81.78 223.538 78.9 216.758 78.9C213.098 78.9 209.828 80.04 206.948 82.32C204.128 84.6 202.328 87.69 201.548 91.59C201.188 93.21 201.008 94.71 201.008 96.09C201.008 98.79 201.818 100.83 203.438 102.21C205.118 103.59 207.758 104.28 211.358 104.28ZM259.334 60.09H293.174C298.574 60.09 302.834 61.35 305.954 63.87C309.134 66.33 310.724 69.72 310.724 74.04C310.724 75.36 310.604 76.62 310.364 77.82C309.884 80.16 308.894 82.44 307.394 84.66C305.894 86.82 304.004 88.59 301.724 89.97C303.704 91.05 305.144 92.31 306.044 93.75C306.944 95.19 307.394 96.93 307.394 98.97C307.394 100.29 307.214 101.76 306.854 103.38C306.014 107.34 304.304 110.82 301.724 113.82C299.204 116.76 296.144 119.04 292.544 120.66C289.004 122.22 285.254 123 281.294 123H246.014L259.334 60.09ZM282.014 83.94C283.874 83.94 285.314 83.58 286.334 82.86C287.354 82.08 288.044 80.82 288.404 79.08C288.524 78.36 288.584 77.88 288.584 77.64C288.584 76.56 288.194 75.78 287.414 75.3C286.694 74.76 285.554 74.49 283.994 74.49H276.974L274.994 83.94H282.014ZM277.964 108.6C280.124 108.6 281.744 108.18 282.824 107.34C283.964 106.5 284.744 105.15 285.164 103.29C285.284 102.87 285.344 102.27 285.344 101.49C285.344 100.29 284.924 99.39 284.084 98.79C283.304 98.19 282.014 97.89 280.214 97.89H272.024L269.774 108.6H277.964ZM320.506 60.09H341.836L328.516 123H307.186L320.506 60.09ZM348.103 60.09H366.913L379.423 89.34L385.633 60.09H406.063L392.743 123H373.933L361.423 93.66L355.213 123H334.783L348.103 60.09ZM419.641 124.35C415.501 124.35 411.421 123.93 407.401 123.09C403.381 122.25 400.201 121.11 397.861 119.67L401.821 101.13C404.761 103.05 408.001 104.49 411.541 105.45C415.141 106.41 418.531 106.89 421.711 106.89C423.751 106.89 425.191 106.68 426.031 106.26C426.871 105.78 427.291 105.06 427.291 104.1C427.291 103.2 426.751 102.39 425.671 101.67C424.591 100.89 422.401 99.72 419.101 98.16C414.721 96 411.511 93.69 409.471 91.23C407.431 88.77 406.411 85.89 406.411 82.59C406.411 81.45 406.561 80.07 406.861 78.45C407.701 74.55 409.411 71.13 411.991 68.19C414.631 65.19 418.021 62.88 422.161 61.26C426.361 59.58 431.131 58.74 436.471 58.74C440.551 58.74 444.091 59.07 447.091 59.73C450.151 60.39 453.001 61.41 455.641 62.79L451.771 80.7C447.091 77.7 442.081 76.2 436.741 76.2C432.541 76.2 430.201 77.13 429.721 78.99C429.541 79.89 429.841 80.61 430.621 81.15C431.461 81.69 433.081 82.53 435.481 83.67C436.201 83.91 437.251 84.36 438.631 85.02C443.251 87.18 446.491 89.31 448.351 91.41C450.271 93.51 451.231 96.12 451.231 99.24C451.231 100.8 450.991 102.69 450.511 104.91C449.191 111.15 446.131 115.95 441.331 119.31C436.531 122.67 429.301 124.35 419.641 124.35ZM483.278 124.35C478.118 124.35 473.408 123.3 469.148 121.2C464.888 119.04 461.498 116.01 458.978 112.11C456.518 108.15 455.288 103.62 455.288 98.52C455.288 96.3 455.558 93.99 456.098 91.59C457.478 85.05 460.088 79.32 463.928 74.4C467.768 69.42 472.568 65.58 478.328 62.88C484.088 60.12 490.388 58.74 497.228 58.74C502.628 58.74 507.428 59.79 511.628 61.89C515.888 63.99 519.218 66.99 521.618 70.89C524.018 74.79 525.218 79.29 525.218 84.39C525.218 86.67 524.948 89.07 524.408 91.59C523.028 98.07 520.388 103.8 516.488 108.78C512.648 113.7 507.848 117.54 502.088 120.3C496.388 123 490.118 124.35 483.278 124.35ZM487.598 104.28C491.198 104.28 494.408 103.14 497.228 100.86C500.048 98.58 501.878 95.49 502.718 91.59C503.018 89.97 503.168 88.62 503.168 87.54C503.168 81.78 499.778 78.9 492.998 78.9C489.338 78.9 486.068 80.04 483.188 82.32C480.368 84.6 478.568 87.69 477.788 91.59C477.428 93.21 477.248 94.71 477.248 96.09C477.248 98.79 478.058 100.83 479.678 102.21C481.358 103.59 483.998 104.28 487.598 104.28ZM535.574 60.09H554.384L566.894 89.34L573.104 60.09H593.534L580.214 123H561.404L548.894 93.66L542.684 123H522.254L535.574 60.09Z" fill="black"/>
<defs>
<clipPath id="clip0_101_73">
<rect width="209" height="139" fill="white"/>
</clipPath>
</defs>
</svg>
