<svg xmlns="http://www.w3.org/2000/svg" xmlns:xlink="http://www.w3.org/1999/xlink" width="160" zoomAndPan="magnify" viewBox="0 0 120 89.999999" height="120" preserveAspectRatio="xMidYMid meet" version="1.0"><defs><clipPath id="a4bd453c27"><path d="M 0.820312 35.042969 L 81 35.042969 L 81 54 L 0.820312 54 Z M 0.820312 35.042969 " clip-rule="nonzero"/></clipPath></defs><g clip-path="url(#a4bd453c27)"><path fill="#000000" d="M 79.664062 36.023438 C 79.648438 36.039062 79.34375 36.085938 78.984375 36.117188 C 78.636719 36.144531 78.164062 36.207031 77.9375 36.25 C 77.480469 36.335938 71.605469 36.292969 70.328125 36.199219 C 69.230469 36.121094 67.675781 36.109375 67.175781 36.1875 C 66.328125 36.320312 65.359375 36.761719 64.871094 37.242188 C 64.476562 37.613281 64.121094 38.320312 63.996094 38.917969 C 63.882812 39.46875 63.953125 40.414062 64.128906 40.953125 C 64.277344 41.390625 64.320312 41.753906 64.339844 42.6875 C 64.355469 43.632812 64.398438 43.972656 64.554688 44.449219 C 64.773438 45.09375 65.105469 45.554688 65.351562 45.554688 C 65.664062 45.554688 66.015625 45.070312 66.128906 44.441406 C 66.328125 43.449219 66.53125 43.292969 66.835938 43.902344 C 66.929688 44.09375 67.046875 44.25 67.089844 44.25 C 67.324219 44.25 67.59375 43.617188 67.640625 42.957031 C 67.675781 42.484375 67.796875 42.425781 67.996094 42.773438 C 68.199219 43.113281 68.328125 43.101562 68.511719 42.746094 C 68.714844 42.355469 68.765625 42.066406 68.765625 41.371094 C 68.765625 40.695312 68.851562 40.617188 69.429688 40.761719 C 69.867188 40.875 70.636719 40.816406 71.054688 40.652344 C 71.378906 40.511719 71.492188 40.335938 71.253906 40.335938 C 71.0625 40.335938 71.011719 40.1875 71.117188 39.988281 C 71.183594 39.859375 71.296875 39.816406 71.570312 39.816406 C 71.910156 39.816406 72.503906 39.660156 72.601562 39.546875 C 72.625 39.519531 72.738281 39.441406 72.84375 39.390625 C 73.097656 39.257812 73.046875 39.1875 72.667969 39.144531 C 72.277344 39.109375 71.988281 38.945312 71.988281 38.761719 C 71.988281 38.546875 72.304688 38.398438 72.582031 38.46875 C 73 38.570312 73.132812 38.589844 73.980469 38.640625 C 76.03125 38.761719 77.289062 38.683594 78.136719 38.363281 C 78.652344 38.171875 79.0625 37.960938 79.0625 37.882812 C 79.0625 37.839844 79.105469 37.816406 79.160156 37.816406 C 79.414062 37.816406 79.902344 37.066406 80.074219 36.398438 L 80.179688 35.988281 L 79.945312 35.988281 C 79.8125 35.988281 79.683594 36.007812 79.664062 36.023438 Z M 69.308594 37.492188 C 69.621094 37.484375 69.699219 37.570312 69.5625 37.78125 C 69.480469 37.902344 68.964844 38.074219 68.703125 38.074219 C 68.589844 38.074219 68.496094 38.109375 68.496094 38.164062 C 68.496094 38.292969 68.144531 38.449219 67.753906 38.492188 C 67.5625 38.511719 67.324219 38.597656 67.230469 38.683594 C 66.898438 38.972656 66.695312 39.03125 66.40625 38.9375 C 66.15625 38.851562 65.867188 38.519531 66.023438 38.503906 C 66.058594 38.503906 66.25 38.484375 66.433594 38.476562 C 66.714844 38.449219 66.835938 38.378906 67.089844 38.085938 C 67.378906 37.761719 67.429688 37.738281 67.71875 37.78125 C 67.980469 37.824219 68.074219 37.796875 68.277344 37.597656 C 68.476562 37.421875 68.582031 37.378906 68.757812 37.433594 C 68.878906 37.46875 69.125 37.492188 69.308594 37.492188 Z M 65.597656 40.3125 C 65.699219 40.335938 65.789062 40.378906 65.796875 40.414062 C 65.796875 40.441406 65.8125 40.675781 65.839844 40.929688 C 65.867188 41.328125 65.847656 41.390625 65.71875 41.363281 C 65.640625 41.347656 65.5625 41.242188 65.542969 41.121094 C 65.527344 41 65.421875 40.816406 65.296875 40.703125 C 65.046875 40.46875 65 40.109375 65.246094 40.207031 C 65.324219 40.242188 65.480469 40.292969 65.597656 40.3125 Z M 62.644531 38.773438 C 62.328125 38.964844 62.023438 39.121094 61.972656 39.121094 C 61.910156 39.121094 61.859375 39.15625 61.859375 39.1875 C 61.859375 39.222656 61.578125 39.414062 61.238281 39.597656 C 60.726562 39.878906 60.21875 40.164062 59.71875 40.460938 C 59.621094 40.511719 59.316406 40.695312 59.046875 40.851562 C 58.765625 41.007812 58.539062 41.15625 58.539062 41.171875 C 58.539062 41.214844 58.738281 41.582031 58.800781 41.640625 C 58.828125 41.667969 58.933594 41.84375 59.027344 42.035156 C 59.640625 43.171875 59.691406 43.234375 59.902344 43.042969 C 59.945312 43 60.179688 42.859375 60.417969 42.730469 C 60.710938 42.570312 61.003906 42.402344 61.289062 42.234375 C 61.535156 42.09375 61.894531 41.902344 62.101562 41.808594 C 62.304688 41.710938 62.46875 41.597656 62.46875 41.554688 C 62.46875 41.503906 62.496094 41.476562 62.539062 41.484375 C 62.574219 41.496094 62.75 41.425781 62.933594 41.335938 C 63.265625 41.171875 63.265625 41.164062 63.210938 40.773438 C 63.089844 39.886719 63.082031 39.320312 63.195312 38.875 C 63.261719 38.632812 63.289062 38.425781 63.261719 38.425781 C 63.238281 38.433594 62.957031 38.589844 62.644531 38.773438 Z M 7.203125 41.257812 C 5.832031 41.589844 4.398438 42.257812 3.605469 42.964844 C 3.4375 43.101562 3.203125 43.3125 3.082031 43.417969 C 2.742188 43.703125 2.042969 44.675781 1.726562 45.296875 C 1.394531 45.945312 1.003906 47.171875 0.921875 47.792969 C 0.855469 48.382812 0.855469 49.878906 0.921875 50.296875 C 1.019531 50.808594 1.449219 51.636719 1.851562 52.054688 C 2.285156 52.511719 2.84375 52.835938 3.613281 53.078125 C 4.214844 53.261719 4.347656 53.269531 8.234375 53.277344 L 12.242188 53.289062 L 12.347656 52.792969 C 12.476562 52.132812 12.476562 52.140625 12.539062 51.992188 C 12.574219 51.886719 12.773438 51.027344 12.914062 50.382812 C 12.921875 50.332031 12.976562 50.121094 13.039062 49.90625 C 13.097656 49.6875 13.160156 49.417969 13.1875 49.296875 C 13.203125 49.175781 13.335938 48.644531 13.464844 48.121094 C 13.605469 47.589844 13.699219 47.148438 13.675781 47.121094 C 13.65625 47.09375 12.539062 47.078125 11.195312 47.070312 L 8.757812 47.070312 L 8.652344 47.417969 C 8.601562 47.617188 8.546875 47.808594 8.53125 47.859375 C 8.523438 47.902344 8.3125 48.78125 8.050781 49.800781 L 7.585938 51.652344 L 6.808594 51.636719 C 5.527344 51.609375 5.507812 51.523438 6.191406 48.90625 C 6.410156 48.042969 6.625 47.199219 6.660156 47.035156 C 6.695312 46.871094 6.855469 46.242188 7.003906 45.644531 C 7.152344 45.042969 7.300781 44.476562 7.316406 44.390625 C 7.578125 43.257812 8.128906 42.851562 9.289062 42.902344 C 9.917969 42.929688 10.425781 43.09375 11.039062 43.46875 C 11.273438 43.605469 11.472656 43.695312 11.492188 43.660156 C 11.519531 43.625 11.710938 43.257812 11.9375 42.84375 L 12.347656 42.085938 L 12.015625 41.875 C 11.5 41.5625 11.046875 41.398438 9.953125 41.128906 C 9.386719 40.980469 8.078125 41.042969 7.203125 41.257812 Z M 21.847656 41.078125 C 21.832031 41.085938 21.65625 41.121094 21.464844 41.144531 C 20.511719 41.285156 19.550781 41.582031 18.890625 41.964844 C 18.765625 42.03125 18.601562 42.113281 18.523438 42.136719 C 18.433594 42.164062 18.363281 42.214844 18.363281 42.257812 C 18.363281 42.300781 18.3125 42.335938 18.261719 42.335938 C 18.113281 42.335938 17.152344 43.242188 16.773438 43.730469 C 16.261719 44.40625 15.699219 45.644531 15.507812 46.511719 C 15.21875 47.886719 15.253906 49.574219 15.605469 50.382812 C 16.050781 51.410156 16.136719 51.53125 17.21875 52.511719 C 17.5 52.765625 18.765625 53.289062 19.359375 53.390625 C 20.652344 53.609375 22.835938 53.296875 24.03125 52.714844 C 24.398438 52.539062 24.714844 52.375 24.738281 52.339844 C 24.765625 52.3125 24.921875 52.191406 25.089844 52.078125 C 25.457031 51.816406 26.128906 51.113281 26.441406 50.660156 C 26.660156 50.339844 27.105469 49.511719 27.160156 49.339844 C 27.167969 49.289062 27.300781 48.921875 27.4375 48.511719 C 27.585938 48.105469 27.71875 47.652344 27.746094 47.511719 C 27.769531 47.363281 27.8125 47.140625 27.847656 47.007812 C 28.085938 45.921875 27.996094 44.597656 27.613281 43.6875 C 27.550781 43.539062 27.507812 43.398438 27.519531 43.371094 C 27.527344 43.339844 27.449219 43.242188 27.359375 43.164062 C 27.265625 43.078125 27.1875 42.972656 27.1875 42.929688 C 27.1875 42.765625 26.285156 42 25.769531 41.730469 C 24.984375 41.3125 23.839844 41.050781 22.765625 41.050781 C 22.277344 41.042969 21.859375 41.058594 21.847656 41.078125 Z M 23.414062 42.988281 C 23.613281 43.226562 23.667969 43.632812 23.527344 43.886719 C 23.484375 43.964844 23.421875 44.148438 23.394531 44.292969 C 23.289062 44.894531 23.0625 45.851562 22.992188 46.042969 C 22.949219 46.15625 22.933594 46.25 22.957031 46.25 C 22.976562 46.25 22.957031 46.320312 22.914062 46.398438 C 22.871094 46.488281 22.808594 46.703125 22.785156 46.886719 C 22.730469 47.21875 22.539062 48 22.164062 49.46875 C 22.050781 49.921875 21.929688 50.453125 21.894531 50.644531 C 21.832031 51.0625 21.570312 51.511719 21.28125 51.703125 C 20.738281 52.054688 19.769531 51.644531 19.761719 51.050781 C 19.761719 50.941406 19.917969 50.191406 20.121094 49.398438 C 20.3125 48.601562 20.496094 47.878906 20.511719 47.78125 C 20.539062 47.617188 21.167969 45.050781 21.367188 44.25 C 21.4375 43.992188 21.515625 43.667969 21.542969 43.539062 C 21.613281 43.226562 22.03125 42.78125 22.347656 42.695312 C 22.714844 42.597656 23.175781 42.730469 23.414062 42.988281 Z M 36.085938 41.066406 C 36.066406 41.085938 35.867188 41.121094 35.632812 41.144531 C 35.402344 41.171875 35.183594 41.222656 35.140625 41.25 C 35.089844 41.277344 34.886719 41.320312 34.6875 41.347656 C 33.859375 41.46875 32.328125 42.269531 31.613281 42.964844 C 31.152344 43.425781 30.644531 44.101562 30.390625 44.609375 C 30.078125 45.261719 29.71875 46.226562 29.78125 46.277344 C 29.804688 46.304688 29.789062 46.382812 29.753906 46.441406 C 29.710938 46.503906 29.675781 46.589844 29.664062 46.644531 C 29.65625 46.6875 29.613281 46.902344 29.578125 47.121094 C 29.484375 47.582031 29.472656 49.121094 29.5625 49.558594 C 29.664062 50.140625 29.894531 50.730469 30.179688 51.175781 C 30.503906 51.695312 31.070312 52.339844 31.203125 52.339844 C 31.246094 52.339844 31.289062 52.375 31.289062 52.425781 C 31.289062 52.46875 31.34375 52.511719 31.414062 52.511719 C 31.484375 52.511719 31.550781 52.574219 31.585938 52.644531 C 31.613281 52.714844 31.664062 52.765625 31.699219 52.757812 C 31.734375 52.75 31.945312 52.835938 32.164062 52.949219 C 32.878906 53.339844 33.570312 53.460938 34.878906 53.425781 C 35.535156 53.417969 36.109375 53.382812 36.164062 53.359375 C 36.207031 53.324219 36.410156 53.28125 36.609375 53.253906 C 36.984375 53.210938 38.320312 52.730469 38.53125 52.574219 C 38.652344 52.46875 38.941406 52.296875 39.152344 52.191406 C 39.296875 52.121094 40.144531 51.289062 40.417969 50.9375 C 41.035156 50.15625 41.746094 48.46875 41.988281 47.199219 C 42.128906 46.503906 42.179688 45.023438 42.078125 44.6875 C 42.058594 44.617188 42.015625 44.425781 41.988281 44.269531 C 41.902344 43.765625 41.414062 42.921875 40.941406 42.46875 C 40.023438 41.582031 38.808594 41.128906 37.132812 41.066406 C 36.582031 41.050781 36.109375 41.042969 36.085938 41.066406 Z M 37.34375 42.78125 C 37.675781 42.929688 37.789062 43.214844 37.710938 43.703125 C 37.621094 44.3125 37.605469 44.363281 37.550781 44.511719 C 37.492188 44.695312 37.238281 45.722656 37.195312 45.992188 C 37.175781 46.113281 37.082031 46.503906 36.976562 46.859375 C 36.878906 47.21875 36.773438 47.644531 36.75 47.808594 C 36.722656 47.964844 36.625 48.375 36.53125 48.722656 C 36.453125 49 36.382812 49.277344 36.320312 49.558594 C 36.304688 49.679688 36.199219 50.113281 36.09375 50.539062 C 35.894531 51.332031 35.5625 51.808594 35.203125 51.828125 C 35.117188 51.835938 34.976562 51.84375 34.898438 51.84375 C 34.636719 51.851562 34.179688 51.566406 34.042969 51.296875 C 33.894531 51.007812 33.875 51.097656 34.625 48.078125 C 34.863281 47.09375 35.082031 46.21875 35.097656 46.121094 C 35.175781 45.730469 35.527344 44.339844 35.683594 43.773438 C 35.859375 43.191406 36.078125 42.851562 36.355469 42.746094 C 36.582031 42.660156 37.125 42.6875 37.34375 42.78125 Z M 45.449219 41.382812 C 45.394531 41.414062 44.835938 43.511719 44.695312 44.171875 C 44.679688 44.25 44.488281 45.035156 44.257812 45.914062 C 44.03125 46.792969 43.832031 47.601562 43.8125 47.695312 C 43.796875 47.800781 43.597656 48.582031 43.378906 49.433594 C 42.96875 51.035156 42.933594 51.183594 42.855469 51.558594 C 42.828125 51.679688 42.730469 52.042969 42.636719 52.382812 C 42.546875 52.714844 42.46875 53.0625 42.46875 53.140625 C 42.46875 53.289062 42.6875 53.296875 46.46875 53.261719 C 48.660156 53.246094 50.546875 53.210938 50.652344 53.183594 C 51.929688 52.863281 52.949219 52.453125 53.429688 52.070312 C 54.109375 51.523438 55.132812 50.277344 55.132812 49.992188 C 55.132812 49.949219 55.167969 49.90625 55.203125 49.90625 C 55.253906 49.90625 55.449219 49.546875 55.515625 49.296875 C 55.527344 49.269531 55.613281 49.035156 55.71875 48.773438 C 55.882812 48.332031 56.199219 47.113281 56.3125 46.425781 C 56.382812 46.023438 56.390625 44.972656 56.320312 44.597656 C 56.234375 44.09375 55.894531 43.214844 55.726562 43.035156 C 55.640625 42.945312 55.570312 42.84375 55.570312 42.816406 C 55.570312 42.640625 54.582031 41.972656 53.996094 41.746094 C 53.011719 41.363281 52.863281 41.355469 49.125 41.347656 C 47.132812 41.335938 45.480469 41.355469 45.449219 41.378906 Z M 51.414062 42.902344 C 51.867188 43.199219 51.902344 43.46875 51.621094 44.597656 C 51.484375 45.148438 51.351562 45.667969 51.332031 45.757812 C 51.316406 45.84375 51.273438 46 51.238281 46.09375 C 51.210938 46.191406 51.175781 46.355469 51.160156 46.453125 C 51.125 46.667969 51.097656 46.78125 50.90625 47.511719 C 50.828125 47.800781 50.738281 48.128906 50.722656 48.253906 C 50.695312 48.375 50.558594 48.9375 50.417969 49.511719 C 50.269531 50.085938 50.128906 50.636719 50.109375 50.722656 C 50.085938 50.816406 50.023438 50.921875 49.960938 50.964844 C 49.902344 51 49.882812 51.035156 49.929688 51.035156 C 50.066406 51.035156 49.578125 51.460938 49.332031 51.558594 C 49.070312 51.652344 47.945312 51.679688 47.859375 51.589844 C 47.824219 51.558594 47.832031 51.488281 47.859375 51.4375 C 47.890625 51.382812 47.925781 51.296875 47.945312 51.253906 C 48.03125 50.835938 48.496094 48.9375 48.765625 47.902344 C 48.851562 47.546875 48.992188 46.957031 49.070312 46.597656 C 49.152344 46.242188 49.246094 45.886719 49.28125 45.816406 C 49.316406 45.746094 49.378906 45.546875 49.402344 45.382812 C 49.464844 45.023438 49.464844 45.007812 49.777344 43.773438 C 49.910156 43.242188 50.050781 42.789062 50.09375 42.765625 C 50.25 42.652344 51.175781 42.753906 51.414062 42.902344 Z M 51.414062 42.902344 " fill-opacity="1" fill-rule="nonzero"/></g><path fill="#000000" d="M 69.9375 41.382812 C 69.917969 41.425781 69.925781 41.511719 70.007812 41.816406 C 70.023438 41.886719 70.128906 42.226562 70.234375 42.574219 C 70.335938 42.910156 70.441406 43.25 70.453125 43.3125 C 70.460938 43.371094 70.539062 43.640625 70.617188 43.902344 C 70.828125 44.5625 71.640625 47.375 71.699219 47.644531 C 71.789062 48.027344 71.777344 48.042969 71.289062 49.730469 C 71.089844 50.425781 70.90625 51.078125 70.886719 51.183594 C 70.871094 51.289062 70.820312 51.46875 70.773438 51.574219 C 70.730469 51.6875 70.695312 51.792969 70.695312 51.816406 C 70.695312 51.84375 70.636719 52.085938 70.546875 52.355469 C 70.46875 52.625 70.390625 52.949219 70.363281 53.070312 L 70.328125 53.277344 L 73.046875 53.269531 L 75.769531 53.253906 L 75.882812 52.863281 C 75.953125 52.644531 76.023438 52.375 76.050781 52.253906 C 76.109375 51.957031 76.179688 51.625 76.222656 51.46875 C 76.355469 51 76.828125 49.183594 76.898438 48.84375 C 76.949219 48.617188 77.054688 48.363281 77.132812 48.277344 C 77.210938 48.191406 77.445312 47.886719 77.664062 47.601562 C 77.882812 47.3125 78.109375 47.042969 78.164062 47.007812 C 78.222656 46.972656 78.277344 46.886719 78.277344 46.835938 C 78.277344 46.773438 78.347656 46.660156 78.433594 46.589844 C 78.511719 46.511719 78.738281 46.242188 78.933594 45.992188 C 79.125 45.738281 79.324219 45.496094 79.367188 45.433594 C 79.421875 45.382812 79.628906 45.101562 79.847656 44.816406 C 80.066406 44.53125 80.292969 44.242188 80.355469 44.179688 C 80.417969 44.113281 80.574219 43.921875 80.703125 43.746094 C 80.835938 43.5625 80.957031 43.40625 80.984375 43.382812 C 81.019531 43.355469 81.148438 43.179688 81.296875 42.988281 C 81.4375 42.800781 81.640625 42.546875 81.753906 42.425781 C 81.867188 42.304688 82.023438 42.101562 82.101562 41.964844 C 82.179688 41.832031 82.277344 41.730469 82.3125 41.730469 C 82.347656 41.730469 82.382812 41.667969 82.382812 41.597656 C 82.382812 41.527344 82.425781 41.46875 82.46875 41.46875 C 82.519531 41.46875 82.554688 41.441406 82.554688 41.398438 C 82.554688 41.355469 80.304688 41.320312 79.890625 41.371094 C 79.839844 41.371094 79.65625 41.5625 79.480469 41.796875 C 79.308594 42.023438 79.089844 42.292969 79 42.390625 C 78.914062 42.496094 78.730469 42.71875 78.582031 42.902344 C 78.15625 43.433594 77.019531 44.808594 76.921875 44.914062 C 76.878906 44.964844 76.773438 45.09375 76.703125 45.199219 C 76.636719 45.292969 76.546875 45.382812 76.511719 45.382812 C 76.476562 45.382812 76.269531 44.808594 76.050781 44.09375 C 75.832031 43.390625 75.570312 42.5625 75.472656 42.257812 C 75.316406 41.78125 75.253906 41.574219 75.230469 41.382812 C 75.21875 41.355469 74.039062 41.335938 72.589844 41.335938 C 71.152344 41.335938 69.953125 41.355469 69.9375 41.382812 Z M 83.621094 41.382812 C 83.585938 41.40625 83.445312 41.875 83.316406 42.425781 C 83.175781 42.972656 83.011719 43.660156 82.933594 43.945312 C 82.863281 44.234375 82.792969 44.503906 82.773438 44.554688 C 82.765625 44.597656 82.730469 44.738281 82.703125 44.859375 C 82.679688 44.980469 82.453125 45.878906 82.214844 46.859375 C 81.972656 47.84375 81.753906 48.738281 81.734375 48.859375 C 81.707031 48.984375 81.527344 49.703125 81.332031 50.46875 C 81.140625 51.234375 80.90625 52.183594 80.816406 52.566406 L 80.660156 53.277344 L 90.136719 53.277344 L 90.179688 53.097656 C 90.207031 52.992188 90.328125 52.511719 90.449219 52.035156 C 90.574219 51.558594 90.679688 51.140625 90.679688 51.097656 C 90.679688 51.0625 89.734375 51.035156 88.582031 51.035156 L 86.496094 51.035156 L 86.546875 50.75 C 86.574219 50.601562 86.667969 50.242188 86.757812 49.972656 C 86.84375 49.695312 86.941406 49.332031 86.964844 49.148438 C 87 48.964844 87.0625 48.695312 87.105469 48.546875 L 87.195312 48.269531 L 88.257812 48.269531 C 88.84375 48.261719 89.464844 48.261719 89.628906 48.261719 L 89.945312 48.253906 L 90.1875 47.226562 C 90.328125 46.667969 90.449219 46.164062 90.476562 46.113281 C 90.496094 46.050781 90.074219 46.027344 89.140625 46.027344 C 88.390625 46.035156 87.769531 46.015625 87.753906 45.992188 C 87.742188 45.964844 87.824219 45.589844 87.9375 45.164062 C 88.058594 44.730469 88.199219 44.199219 88.25 43.980469 L 88.355469 43.582031 L 90.242188 43.574219 C 91.273438 43.574219 92.222656 43.5625 92.355469 43.5625 C 92.554688 43.554688 92.589844 43.511719 92.644531 43.179688 C 92.679688 42.980469 92.78125 42.5625 92.878906 42.257812 C 93.210938 41.222656 93.769531 41.347656 88.382812 41.335938 C 85.789062 41.335938 83.648438 41.355469 83.621094 41.378906 Z M 98.109375 41.382812 C 98.039062 41.425781 97.492188 42.320312 97.492188 42.382812 C 97.492188 42.398438 97.386719 42.582031 97.253906 42.789062 C 96.898438 43.339844 96.816406 43.46875 96.566406 43.902344 C 96.261719 44.433594 95.953125 44.957031 95.640625 45.476562 C 95.457031 45.773438 95.308594 46.050781 95.308594 46.085938 C 95.308594 46.128906 95.273438 46.164062 95.21875 46.164062 C 95.175781 46.164062 95.140625 46.191406 95.148438 46.226562 C 95.160156 46.269531 95.105469 46.390625 95.027344 46.511719 C 94.738281 46.964844 93.5625 48.957031 93.5625 49 C 93.5625 49.027344 93.457031 49.207031 93.324219 49.410156 C 93.183594 49.609375 93.035156 49.851562 92.976562 49.949219 C 92.699219 50.398438 92.429688 50.855469 92.164062 51.3125 C 92.09375 51.445312 91.804688 51.929688 91.535156 52.382812 C 91.253906 52.84375 91.027344 53.226562 91.027344 53.246094 C 91.027344 53.261719 91.542969 53.269531 92.164062 53.277344 L 93.308594 53.289062 L 93.628906 52.757812 C 93.832031 52.429688 94.035156 52.105469 94.242188 51.785156 L 94.53125 51.339844 L 96.574219 51.339844 C 97.691406 51.339844 98.632812 51.367188 98.667969 51.390625 C 98.695312 51.425781 98.738281 51.773438 98.765625 52.183594 C 98.792969 52.582031 98.816406 52.992188 98.835938 53.078125 C 98.863281 53.246094 98.957031 53.253906 101.421875 53.269531 L 103.980469 53.277344 L 103.917969 52.660156 C 103.847656 51.808594 103.789062 51.242188 103.742188 50.828125 C 103.664062 50.15625 103.605469 49.511719 103.558594 48.757812 C 103.527344 48.332031 103.492188 47.921875 103.480469 47.84375 C 103.464844 47.757812 103.421875 47.375 103.386719 47 C 103.351562 46.625 103.316406 46.25 103.296875 46.171875 C 103.261719 45.992188 103.148438 44.6875 103.113281 44.078125 C 103.089844 43.503906 103.011719 42.773438 102.941406 42.292969 C 102.914062 42.101562 102.886719 41.816406 102.886719 41.660156 C 102.886719 41.511719 102.863281 41.371094 102.835938 41.371094 C 102.632812 41.335938 98.164062 41.347656 98.109375 41.382812 Z M 98.144531 45.652344 C 98.164062 45.816406 98.199219 46.164062 98.234375 46.425781 C 98.257812 46.6875 98.300781 47.140625 98.320312 47.425781 C 98.425781 48.800781 98.449219 49.09375 98.496094 49.3125 L 98.539062 49.558594 L 97.0625 49.558594 C 95.777344 49.558594 95.578125 49.539062 95.621094 49.425781 C 95.65625 49.355469 95.71875 49.296875 95.769531 49.296875 C 95.824219 49.296875 95.832031 49.269531 95.804688 49.234375 C 95.769531 49.207031 95.796875 49.121094 95.855469 49.042969 C 96.058594 48.808594 96.703125 47.660156 96.703125 47.546875 C 96.703125 47.488281 96.730469 47.460938 96.757812 47.496094 C 96.792969 47.519531 96.914062 47.355469 97.046875 47.121094 C 97.515625 46.234375 98.058594 45.3125 98.085938 45.339844 C 98.101562 45.347656 98.128906 45.496094 98.144531 45.652344 Z M 108.164062 41.945312 C 108.066406 42.277344 107.960938 42.695312 107.925781 42.859375 C 107.890625 43.023438 107.796875 43.417969 107.699219 43.722656 C 107.605469 44.023438 107.507812 44.398438 107.492188 44.546875 C 107.464844 44.695312 107.367188 45.085938 107.273438 45.425781 C 107.175781 45.753906 107.089844 46.128906 107.0625 46.25 C 107.035156 46.375 106.941406 46.738281 106.835938 47.078125 C 106.738281 47.410156 106.644531 47.78125 106.625 47.902344 C 106.609375 48.027344 106.425781 48.746094 106.222656 49.511719 C 106.023438 50.277344 105.820312 51.0625 105.777344 51.253906 C 105.734375 51.445312 105.691406 51.6875 105.664062 51.785156 C 105.648438 51.886719 105.570312 52.140625 105.5 52.347656 C 105.429688 52.558594 105.351562 52.84375 105.339844 52.992188 L 105.308594 53.253906 L 107.945312 53.261719 L 110.574219 53.277344 L 110.617188 53.042969 C 110.644531 52.921875 110.730469 52.566406 110.808594 52.253906 C 110.894531 51.941406 111.011719 51.46875 111.070312 51.210938 C 111.140625 50.949219 111.238281 50.546875 111.289062 50.3125 L 111.394531 49.90625 L 112.152344 49.90625 L 112.25 50.398438 C 112.300781 50.679688 112.425781 51.234375 112.519531 51.644531 C 112.625 52.054688 112.722656 52.523438 112.738281 52.6875 C 112.816406 53.332031 112.582031 53.277344 115.464844 53.269531 C 118.003906 53.253906 118.058594 53.253906 118.039062 53.078125 C 118.003906 52.75 117.9375 52.382812 117.761719 51.6875 C 117.664062 51.304688 117.570312 50.871094 117.550781 50.730469 C 117.523438 50.582031 117.4375 50.210938 117.359375 49.886719 L 117.210938 49.304688 L 117.457031 49.085938 C 117.59375 48.964844 117.734375 48.859375 117.761719 48.859375 C 117.832031 48.859375 118.78125 47.914062 119 47.632812 C 119.289062 47.261719 119.699219 46.390625 119.8125 45.902344 C 120.039062 44.964844 119.933594 43.695312 119.570312 42.988281 C 119.386719 42.640625 118.730469 42.007812 118.40625 41.859375 C 118.09375 41.730469 117.832031 41.625 117.707031 41.597656 C 117.664062 41.582031 117.445312 41.527344 117.226562 41.46875 C 116.941406 41.382812 115.742188 41.355469 112.582031 41.347656 L 108.335938 41.335938 Z M 114.371094 42.921875 C 114.757812 43.207031 114.816406 43.484375 114.644531 44.191406 C 114.554688 44.539062 114.484375 44.878906 114.476562 44.945312 C 114.46875 45.015625 114.398438 45.304688 114.3125 45.574219 C 114.234375 45.851562 114.128906 46.277344 114.085938 46.519531 C 113.917969 47.382812 113.394531 47.78125 112.449219 47.773438 C 112.058594 47.773438 111.945312 47.746094 111.953125 47.644531 C 111.980469 47.382812 113.097656 42.921875 113.175781 42.765625 C 113.238281 42.640625 114.171875 42.765625 114.371094 42.921875 Z M 63.210938 42.023438 C 62.949219 42.199219 61.769531 42.84375 61.402344 43.015625 C 61 43.199219 60.984375 43.292969 61.359375 43.304688 C 61.507812 43.3125 61.71875 43.328125 61.8125 43.335938 C 61.910156 43.347656 62.304688 43.382812 62.679688 43.417969 C 63.0625 43.449219 63.402344 43.496094 63.445312 43.519531 C 63.480469 43.546875 63.515625 43.234375 63.507812 42.824219 C 63.507812 42.417969 63.527344 42.042969 63.5625 42 C 63.640625 41.867188 63.414062 41.875 63.210938 42.023438 Z M 60.3125 44.320312 C 60.304688 44.511719 60.234375 44.894531 60.164062 45.171875 C 60.023438 45.703125 60.03125 45.808594 60.214844 45.667969 C 60.277344 45.617188 60.878906 45.296875 61.550781 44.945312 C 62.222656 44.597656 62.808594 44.285156 62.863281 44.242188 C 62.90625 44.199219 62.800781 44.164062 62.601562 44.15625 C 62.40625 44.15625 62.171875 44.136719 62.074219 44.121094 C 61.980469 44.101562 61.542969 44.058594 61.117188 44.035156 L 60.320312 43.980469 Z M 63.210938 44.894531 C 62.339844 45.371094 61.253906 45.945312 60.835938 46.15625 C 60.582031 46.269531 60.371094 46.398438 60.371094 46.433594 C 60.371094 46.46875 60.785156 47.3125 61.273438 48.3125 C 61.769531 49.304688 62.269531 50.3125 62.390625 50.558594 L 62.589844 50.992188 L 63.046875 50.558594 C 63.289062 50.3125 63.761719 49.921875 64.074219 49.6875 C 64.398438 49.445312 64.714844 49.207031 64.773438 49.148438 C 64.835938 49.09375 65.160156 48.871094 65.492188 48.652344 C 65.824219 48.433594 66.136719 48.226562 66.179688 48.183594 C 66.234375 48.140625 66.3125 48.085938 66.363281 48.070312 C 66.730469 47.914062 67.359375 47.488281 67.359375 47.390625 C 67.359375 47.332031 67.28125 47.128906 67.195312 46.957031 C 67.105469 46.78125 66.921875 46.425781 66.792969 46.164062 C 66.660156 45.902344 66.519531 45.652344 66.488281 45.617188 C 66.453125 45.574219 66.257812 45.773438 66.058594 46.070312 C 65.394531 47.035156 65.089844 47.21875 64.757812 46.859375 C 64.625 46.722656 63.980469 45.53125 63.910156 45.296875 C 63.8125 45 63.664062 44.6875 63.621094 44.695312 C 63.585938 44.695312 63.402344 44.78125 63.210938 44.894531 Z M 59.082031 48.0625 C 58.820312 48.667969 58.519531 49.382812 58.40625 49.644531 C 58.066406 50.453125 57.5625 51.835938 57.4375 52.320312 C 57.203125 53.199219 56.601562 54.261719 55.960938 54.914062 C 55.824219 55.0625 55.621094 55.289062 55.527344 55.425781 C 55.429688 55.558594 55.308594 55.707031 55.253906 55.765625 C 55.132812 55.898438 54.871094 56.574219 54.871094 56.757812 C 54.871094 56.84375 54.941406 56.992188 55.019531 57.097656 C 55.160156 57.261719 55.183594 57.261719 55.464844 57.148438 C 55.761719 57.027344 57.054688 56.269531 57.140625 56.175781 C 57.167969 56.148438 57.34375 56.011719 57.535156 55.863281 C 57.726562 55.722656 57.925781 55.566406 57.980469 55.515625 C 58.03125 55.472656 58.222656 55.304688 58.40625 55.167969 C 58.835938 54.828125 60.007812 53.722656 60.582031 53.132812 C 60.828125 52.878906 61.148438 52.539062 61.289062 52.390625 C 61.464844 52.214844 61.628906 52.023438 61.777344 51.828125 L 62.007812 51.539062 L 61.449219 50.433594 L 60.496094 48.617188 C 60.058594 47.800781 60.015625 47.730469 59.796875 47.269531 C 59.710938 47.09375 59.613281 46.949219 59.585938 46.949219 C 59.558594 46.949219 59.332031 47.453125 59.082031 48.0625 Z M 66.914062 48.503906 C 66.546875 48.722656 66.136719 48.984375 66.007812 49.078125 C 65.167969 49.695312 64.496094 50.210938 64.328125 50.375 C 64.222656 50.46875 63.988281 50.667969 63.824219 50.816406 C 63.515625 51.0625 62.871094 51.714844 62.214844 52.417969 C 61.414062 53.277344 60.050781 54.636719 59.578125 55.054688 C 59.28125 55.304688 58.992188 55.550781 58.941406 55.601562 C 58.582031 55.921875 58.015625 56.339844 57.9375 56.339844 C 57.882812 56.339844 57.839844 56.375 57.839844 56.417969 C 57.839844 56.515625 56.15625 57.542969 55.875 57.609375 C 55.753906 57.636719 55.65625 57.6875 55.65625 57.730469 C 55.65625 57.855469 55.988281 58.167969 56.121094 58.167969 C 56.320312 58.167969 57.988281 57.253906 58.191406 57.035156 C 58.214844 57.011719 58.390625 56.890625 58.582031 56.757812 C 58.773438 56.628906 59.054688 56.417969 59.195312 56.296875 C 59.34375 56.175781 59.613281 55.949219 59.804688 55.792969 C 60.242188 55.445312 63.527344 52.164062 63.445312 52.164062 C 63.414062 52.164062 63.515625 52.078125 63.664062 51.984375 C 63.824219 51.878906 63.9375 51.773438 63.910156 51.738281 C 63.894531 51.695312 63.972656 51.617188 64.085938 51.558594 C 64.207031 51.496094 64.304688 51.410156 64.304688 51.375 C 64.304688 51.175781 67.148438 49.078125 67.777344 48.816406 C 67.925781 48.746094 68.058594 48.679688 68.058594 48.652344 C 68.058594 48.546875 67.742188 48.121094 67.664062 48.113281 C 67.613281 48.105469 67.28125 48.277344 66.914062 48.503906 Z M 66.914062 48.503906 " fill-opacity="1" fill-rule="nonzero"/></svg>