<svg width="161" height="62" viewBox="0 0 161 62" fill="none" xmlns="http://www.w3.org/2000/svg">
<path d="M15.3266 26.5086H25.439L31.2613 34.6803V26.5086H40.863V45.9163H31.8742L24.9283 37.1318H24.8261V45.9163H15.3266V26.5086Z" fill="#052424"/>
<path d="M44.952 26.5086H66.4026V33.2502H54.758V35.0889H66.4026V41.1155H54.758V45.9163H44.952V26.5086Z" fill="#052424"/>
<path d="M80.7029 26.5086H70.4883V45.9163H80.7029V26.5086Z" fill="#052424"/>
<path d="M122.582 36.415C54.9617 83.8107 -30.6365 52.0434 10.9369 33.6571C-12.761 58.07 69.2622 72.2682 117.679 37.3344C119.416 36.7215 121.357 36.3129 122.582 36.415Z" fill="#052424"/>
<path d="M48.7317 19.357C40.3558 15.5776 29.9369 16.1904 21.4588 19.1527C55.882 -6.28166 125.443 -6.38381 160.377 18.8462C128.406 4.75009 77.1283 -1.37866 48.7317 19.357Z" fill="#052424"/>
<path d="M83.7664 27.528V34.6782C83.7664 34.6782 84.5836 36.6189 85.8093 37.7425V30.2859C85.8093 30.2859 84.4814 29.7752 83.7664 27.528Z" fill="#052424"/>
<path d="M99.0885 31.2058V38.7646C99.0885 38.7646 100.314 37.7431 101.131 35.4959V28.55C101.131 28.55 100.621 30.3886 99.0885 31.2058Z" fill="#052424"/>
<path d="M86.8294 30.5936V37.5395C86.8294 37.5395 87.238 38.3567 90.2002 38.561L90.5067 35.8031L92.9582 38.7653C92.9582 38.7653 93.8775 39.0717 97.044 37.846V30.7979C97.044 30.7979 96.329 31.6151 93.2646 31.6151L92.9582 34.2709L90.5067 31.5129C90.5067 31.4108 89.1788 31.5129 86.8294 30.5936Z" fill="#052424"/>
<path d="M89.0803 39.7855L87.8545 44.8928L92.1447 43.0541L96.0262 44.8928L95.3112 39.9898C95.3112 39.9898 94.2897 40.2962 93.2683 40.0919L91.6339 37.7426L91.4296 40.0919C91.3275 40.1941 90.9189 40.2962 89.0803 39.7855Z" fill="#052424"/>
<path d="M93.1636 27.5286C93.0615 27.3243 92.8572 26.6093 92.04 26.5072C91.2228 26.405 91.0186 26.7115 90.9164 26.9157C90.8143 27.12 90.7121 27.12 90.61 27.12C90.5078 27.12 89.5885 27.12 89.5885 27.12C89.4864 27.12 89.3842 27.3243 89.2821 27.4265L88.8735 28.6522C88.8735 28.6522 89.1799 28.4479 89.2821 28.4479C89.7928 28.5501 90.7121 28.6522 90.61 28.9587C90.5078 29.2651 89.9971 32.023 89.9971 32.023L90.5078 32.1252C90.7121 32.1252 90.8143 32.3295 90.8143 32.3295L92.4486 34.5767C92.4486 34.5767 92.6529 32.6359 92.6529 32.5338C92.6529 32.3295 92.8572 32.3295 92.8572 32.3295L93.8786 32.2273C93.8786 32.2273 93.2658 27.7329 93.1636 27.5286ZM91.5293 27.7329C91.325 27.7329 91.1207 27.5286 91.1207 27.4265C91.1207 27.2222 91.325 27.12 91.4271 27.12C91.6314 27.12 91.8357 27.3243 91.8357 27.4265C91.9379 27.5286 91.8357 27.7329 91.5293 27.7329Z" fill="#052424"/>
</svg>
