<svg width="249" height="47" viewBox="0 0 249 47" fill="none" xmlns="http://www.w3.org/2000/svg">
<path d="M39.4242 25.4582C36.1644 28.2523 37.5615 32.5986 38.9585 35.0823C40.666 38.1868 38.4928 42.6884 35.5435 45.3272C42.5287 41.2913 47.3408 33.8405 47.6512 25.1477C45.478 23.4403 41.7526 23.4403 39.4242 25.4582Z" fill="#052424"/>
<path d="M22.8141 32.2859C18.1573 28.4052 14.1214 30.2679 11.4826 33.5277C8.68849 36.7875 12.5692 37.874 17.6916 38.9606C21.5723 39.892 21.1066 45.3249 21.5723 46.5667C26.2291 38.9606 24.8321 34.1486 22.8141 32.2859Z" fill="#052424"/>
<path d="M30.1171 8.22589C37.8785 14.435 31.0485 17.5395 31.0485 17.5395C35.5501 21.4202 40.0516 13.9693 44.8637 18.1604C46.1055 19.247 47.0368 20.644 47.5025 22.0411C46.7264 12.1066 39.8964 3.87953 30.738 1.08545C27.1678 2.63772 25.6155 4.81089 30.1171 8.22589Z" fill="#052424"/>
<path d="M11.1763 29.4932C9.46884 24.5259 11.642 22.3527 19.4034 16.7646C29.1826 9.77935 13.9704 12.263 20.1795 5.89868C22.3527 3.72551 25.4572 1.86278 27.7856 0.310515C26.3886 0.155288 25.1468 6.10352e-05 23.7497 6.10352e-05C10.7107 6.10352e-05 0 10.8659 0 24.2155C0 24.6811 0 25.302 0 25.7677C3.57022 29.1827 8.0718 31.3559 11.1763 29.4932Z" fill="#052424"/>
<path d="M60.0702 10.8649H70.0047C74.0406 10.8649 77.6108 10.8649 79.784 13.9695C80.7154 15.3665 81.181 17.3845 81.181 19.092C81.181 20.489 80.8706 21.886 80.4049 22.9726C78.2317 27.4742 73.7302 27.6294 70.3152 27.6294H66.2793V35.8565H60.0702V10.8649ZM66.2793 15.3665V22.9726H70.0047C72.3331 22.9726 75.1272 22.9726 75.1272 19.092C75.1272 15.3665 72.0227 15.3665 70.1599 15.3665H66.2793Z" fill="#052424"/>
<path d="M84.5986 10.7126H95.7749C98.4138 10.7126 101.674 10.7126 103.847 13.1962C104.933 14.438 105.865 16.456 105.865 18.7844C105.865 23.9069 102.45 25.1487 100.742 25.7696L106.486 35.8593H99.6556L94.6883 26.8562H90.8076V35.8593H84.5986V10.7126ZM90.8076 15.5246V22.3546H95.9301C96.8615 22.3546 99.6556 22.1994 99.6556 18.9396C99.6556 15.6798 97.3272 15.6798 96.0854 15.5246H90.8076Z" fill="#052424"/>
<path d="M121.079 36.6344C113.162 36.6344 108.816 30.5805 108.816 23.2849C108.816 16.4549 113.007 10.0906 121.079 10.0906C122.476 10.0906 124.028 10.2458 125.58 10.8667C133.031 13.5056 133.497 21.7326 133.497 23.4401C133.497 27.7864 131.479 31.6671 128.84 33.8403C126.357 36.0135 123.562 36.6344 121.079 36.6344ZM125.27 17.0758C124.183 15.9892 122.631 15.2131 120.924 15.2131C117.198 15.2131 114.715 18.6281 114.715 23.1296C114.715 29.0283 117.974 31.3567 120.924 31.3567C123.873 31.3567 126.977 29.1835 127.133 23.9058C127.443 21.2669 126.667 18.6281 125.27 17.0758Z" fill="#052424"/>
<path d="M167.03 36.4791C159.424 36.4791 154.612 31.0462 154.612 23.2849C154.612 13.9712 160.977 10.0906 167.03 10.0906C174.016 10.0906 179.449 14.9026 179.449 22.9744C179.604 30.5805 175.257 36.4791 167.03 36.4791ZM167.186 12.8847C160.977 12.8847 158.338 17.6967 158.338 23.4401C158.338 28.7178 160.821 33.9955 167.341 33.9955C174.016 33.9955 176.189 28.4073 176.189 23.2849C176.034 17.0758 172.929 12.8847 167.186 12.8847Z" fill="#052424"/>
<path d="M214.373 10.7126V35.8593H211.113V10.7126H212.82H214.373Z" fill="#052424"/>
<path d="M228.335 24.3713C224.765 23.5951 219.488 22.3533 219.488 17.2308C219.488 14.7472 220.885 13.1949 221.816 12.4188C223.989 10.5561 226.783 10.2456 228.491 10.2456C230.198 10.2456 232.837 10.4008 235.165 12.1083C237.649 13.9711 238.115 16.4547 238.425 18.0069L235.165 18.1622C235.165 17.386 235.01 15.3681 233.147 13.971C231.906 13.0397 230.353 12.7292 228.801 12.7292C225.852 12.7292 223.213 13.9711 223.213 16.6099C223.213 19.404 226.007 20.0249 228.025 20.4906L230.819 21.2667C232.682 21.7324 233.768 21.8876 234.7 22.3533C238.425 23.9056 239.046 27.0101 239.046 28.5624C239.046 30.8908 238.115 33.064 235.942 34.6162C233.613 36.3237 230.664 36.3237 229.267 36.3237C227.094 36.3237 219.332 36.0133 218.711 27.631L222.282 27.1653C222.282 28.0967 222.437 30.2699 224.3 31.9774C225.697 33.2192 227.559 33.6849 229.422 33.6849C232.992 33.6849 235.631 31.9774 235.631 28.7176C235.631 25.7683 233.303 24.9922 230.974 24.5265L228.335 24.3713Z" fill="#052424"/>
<path d="M183.168 23.2849C183.168 15.3683 188.911 10.0906 196.052 10.0906C200.553 10.0906 203.658 12.1085 205.831 14.7474L203.347 16.2997C201.795 14.2817 199.156 12.7294 196.052 12.7294C190.619 12.7294 186.428 16.9206 186.428 23.1296C186.428 29.1835 190.619 33.5298 196.052 33.5298C199.001 33.5298 201.485 32.1328 202.882 30.7358V25.3028H195.741V22.5087H205.986V31.9776C203.658 34.6164 200.243 36.3239 196.052 36.3239C188.911 36.4791 183.168 31.2014 183.168 23.2849Z" fill="#052424"/>
<path d="M140.632 32.91H153.516V35.8593H137.217V10.7126H140.477V32.91H140.632Z" fill="#052424"/>
<path d="M245.261 16.4547C243.554 16.4547 242.157 15.0576 242.157 13.3501C242.157 11.6426 243.554 10.2456 245.261 10.2456C246.969 10.2456 248.366 11.6426 248.366 13.3501C248.366 15.0576 246.969 16.4547 245.261 16.4547ZM245.261 10.7113C243.864 10.7113 242.622 11.7979 242.622 13.3501C242.622 14.7472 243.709 15.989 245.261 15.989C246.658 15.989 247.9 14.9024 247.9 13.3501C247.9 11.9531 246.814 10.7113 245.261 10.7113Z" fill="#052424"/>
<path d="M244.171 11.6417H245.258C245.723 11.6417 246.034 11.6417 246.344 11.9521C246.5 12.1073 246.655 12.4178 246.655 12.7283C246.655 13.3492 246.189 13.6596 246.034 13.6596L246.81 15.0567H246.034L245.413 13.8148H244.792V15.0567H244.171V11.6417ZM244.792 12.1073V13.1939H244.947C245.103 13.1939 245.258 13.1939 245.413 13.1939C245.568 13.1939 246.034 13.1939 246.034 12.7283C246.034 12.7283 246.034 12.4178 245.723 12.2626C245.568 12.2626 245.413 12.2626 245.103 12.2626L244.792 12.1073Z" fill="#052424"/>
</svg>
