<svg width="176" height="49" viewBox="0 0 176 49" fill="none" xmlns="http://www.w3.org/2000/svg">
<path d="M49.9248 0.0189819H66.8157C72.961 0.0189819 76.1525 1.94481 74.9981 7.43699C74.2851 10.7894 72.3838 13.3571 67.9022 14.4092V14.4984C70.6014 14.7658 71.8406 15.9784 71.9764 18.243C72.0952 20.7751 71.1446 24.9121 71.5181 29.3166H60.4328C60.2291 27.1411 60.6365 23.4321 60.7723 20.9C60.8572 19.4556 60.2291 18.8493 58.4127 18.8493H57.1225L54.9666 29.2631H43.8813L49.9248 0.0189819ZM59.4143 12.2159C61.5702 12.2159 63.3187 11.4313 63.7771 9.25583C64.2354 7.11602 62.8604 6.63456 60.6196 6.63456H59.618L58.4636 12.1624H59.4143V12.2159Z" fill="#052424"/>
<path d="M78.0853 29.9217L74.4355 8.95154H84.5531L84.9605 20.1142H85.0454L89.9854 8.95154H99.5258L84.2984 37.0722H73.9601L78.0853 29.9217ZM109.796 26.9616C107.64 29.2797 105.196 29.9217 103.04 29.9217C98.2187 29.9217 95.5704 26.1235 97.0643 18.8838C98.643 11.1627 103.074 8.32743 107.403 8.32743C109.609 8.32743 111.596 8.9872 112.801 10.806L115.042 0H124.582L118.522 29.2976H109.525L109.796 26.9616ZM111.494 15.9772C111.494 14.8004 110.917 14.1049 109.83 14.1049C107.844 14.1049 107.216 15.8881 106.554 19.1156C105.977 21.8617 105.773 24.1264 107.793 24.1264C108.879 24.1264 109.406 23.6449 109.779 23.0386C110.187 22.4323 110.56 21.2019 110.985 19.1156C111.375 17.3146 111.494 16.7975 111.494 15.9772ZM143.748 22.7711C142.084 27.3896 138.112 29.9217 130.677 29.9217C124.871 29.9217 120.219 27.2647 121.917 19.0265C123.377 12.0008 128.758 8.34526 135.854 8.34526C143.357 8.34526 146.142 12.2682 144.648 19.5436L144.359 20.9345H130.71L130.592 21.5051C130.099 23.8589 130.677 24.8575 132.578 24.8575C133.664 24.8575 134.819 24.1977 135.396 22.7711H143.748ZM136.652 16.6192L136.686 16.316C137.093 14.3546 136.312 13.356 134.819 13.356C133.291 13.356 132.035 14.3546 131.627 16.316L131.593 16.6192H136.652ZM157.363 8.6484L156.412 13.3203H156.497C158.279 10.3959 160.639 8.16694 163.712 8.16694C164.289 8.16694 164.866 8.2561 165.239 8.38092L163.542 16.6549C163.134 16.4409 162.303 16.3517 161.386 16.3517C158.687 16.3517 155.903 18.7947 155.292 21.8439L153.764 29.3332H144.003L148.28 8.66623H157.363" fill="#052424"/>
<path d="M167.746 13.026C167.746 10.8853 169.388 9.14093 171.403 9.14093C173.418 9.14093 175.059 10.8853 175.059 13.026C175.059 15.1668 173.418 16.9111 171.403 16.9111C169.388 16.8319 167.746 15.1404 167.746 13.026ZM174.612 13.026C174.612 11.1496 173.219 9.66952 171.452 9.66952C169.686 9.66952 168.219 11.1496 168.219 13.026C168.219 14.9025 169.612 16.4618 171.452 16.4618C173.144 16.3826 174.612 14.9025 174.612 13.026ZM173.219 15.1404H172.597L171.452 13.1318H170.532V15.1404H170.035V10.8324H171.801C172.174 10.8324 172.472 10.8324 172.771 11.0174C173.069 11.2024 173.194 11.5989 173.194 11.916C173.194 12.7617 172.646 13.0789 171.925 13.0789L173.219 15.1404ZM171.328 12.7617C171.875 12.7617 172.796 12.8939 172.796 11.9953C172.796 11.361 172.248 11.2288 171.751 11.2288H170.607V12.7882H171.328V12.7617Z" fill="#052424"/>
<path d="M48.9057 1.14197C40.8449 2.31142 29.0379 5.33089 21.4922 10.3213L41.3649 15.0826L40.6793 16.4539L20.0361 11.3506C14.7834 15.3284 12.2795 20.4401 15.9975 26.738C25.7227 43.2112 70.3889 44.1067 82.0434 41.3642L79.5295 46.392C63.3034 49.6677 26.7378 51.5112 10.2832 32.6799C3.98066 25.4669 7.25097 16.9475 16.8286 10.5579L0 6.39829H24.71C31.3549 3.62304 39.5875 1.69418 48.9057 1.14197Z" fill="#052424"/>
</svg>
